{
  "accessors": [
    {
      "bufferView": 2,
      "componentType": 5126,
      "count": 3302,
      "max": [
        0.022103000432252884,
        3.222191095352173,
        2.4996249675750732
      ],
      "min": [
        -1.3310400247573853,
        -3.7928569316864014,
        -1.8825340270996094
      ],
      "type": "VEC3"
    },
    {
      "bufferView": 2,
      "byteOffset": 39624,
      "componentType": 5126,
      "count": 3302,
      "max": [
        0.999840259552002,
        0.9999794960021973,
        0.9996997714042664
      ],
      "min": [
        -0.9999077320098877,
        -0.9996803402900696,
        -0.9944526553153992
      ],
      "type": "VEC3"
    },
    {
      "bufferView": 3,
      "componentType": 5126,
      "count": 3302,
      "max": [
        0.9993416666984558,
        0.994491696357727,
        0.9961938261985779,
        1.0
      ],
      "min": [
        -0.9944600462913513,
        -0.9995788335800171,
        -0.9971267580986023,
        -1.0
      ],
      "type": "VEC4"
    },
    {
      "bufferView": 1,
      "componentType": 5126,
      "count": 3302,
      "max": [
        1.9973119497299194,
        -0.001307999948039651
      ],
      "min": [
        0.0006000000284984708,
        -0.9940999746322632
      ],
      "type": "VEC2"
    },
    {
      "bufferView": 0,
      "componentType": 5125,
      "count": 8796,
      "type": "SCALAR"
    },
    {
      "bufferView": 2,
      "byteOffset": 79248,
      "componentType": 5126,
      "count": 862,
      "max": [
        1.7635740041732788,
        2.328640937805176,
        2.811378002166748
      ],
      "min": [
        -0.275613009929657,
        -2.481426954269409,
        -2.3502678871154785
      ],
      "type": "VEC3"
    },
    {
      "bufferView": 2,
      "byteOffset": 89592,
      "componentType": 5126,
      "count": 862,
      "max": [
        0.9996790289878845,
        0.9728633761405945,
        0.9999060034751892
      ],
      "min": [
        -0.9989776611328125,
        -0.9546601176261902,
        -0.9998629093170166
      ],
      "type": "VEC3"
    },
    {
      "bufferView": 3,
      "byteOffset": 52832,
      "componentType": 5126,
      "count": 862,
      "max": [
        0.9947516918182373,
        0.9997930526733398,
        0.9991142153739929,
        1.0
      ],
      "min": [
        -0.9997831583023071,
        -0.995806872844696,
        -0.9974129796028137,
        -1.0
      ],
      "type": "VEC4"
    },
    {
      "bufferView": 1,
      "byteOffset": 26416,
      "componentType": 5126,
      "count": 862,
      "max": [
        0.9905210137367249,
        -0.018595999106764793
      ],
      "min": [
        0.00829899962991476,
        -0.987870991230011
      ],
      "type": "VEC2"
    },
    {
      "bufferView": 0,
      "byteOffset": 35184,
      "componentType": 5125,
      "count": 4698,
      "type": "SCALAR"
    }
  ],
  "asset": {
    "extras": {
      "author": "alx_flameniro (https://sketchfab.com/alx_flameniro)",
      "license": "CC-BY-4.0 (http://creativecommons.org/licenses/by/4.0/)",
      "source": "https://sketchfab.com/3d-models/d-e-born-beast-cfs-2018-pose-deb00d39c8a8461883efb69928fd547a",
      "title": "D E-BORN BEAST CFS 2018 POSE"
    },
    "generator": "Sketchfab-12.67.0",
    "version": "2.0"
  },
  "bufferViews": [
    {
      "buffer": 0,
      "byteLength": 53976,
      "name": "floatBufferViews",
      "target": 34963
    },
    {
      "buffer": 0,
      "byteLength": 33312,
      "byteOffset": 53976,
      "byteStride": 8,
      "name": "floatBufferViews",
      "target": 34962
    },
    {
      "buffer": 0,
      "byteLength": 99936,
      "byteOffset": 87288,
      "byteStride": 12,
      "name": "floatBufferViews",
      "target": 34962
    },
    {
      "buffer": 0,
      "byteLength": 66624,
      "byteOffset": 187224,
      "byteStride": 16,
      "name": "floatBufferViews",
      "target": 34962
    }
  ],
  "buffers": [
    {
      "byteLength": 253848,
      "uri": "scene.bin"
    }
  ],
  "images": [
    {
      "uri": "textures/material_baseColor.png"
    },
    {
      "uri": "textures/material_emissive.png"
    },
    {
      "uri": "textures/material_normal.png"
    },
    {
      "uri": "textures/material_1_baseColor.png"
    },
    {
      "uri": "textures/material_1_emissive.png"
    },
    {
      "uri": "textures/material_1_normal.png"
    }
  ],
  "materials": [
    {
      "doubleSided": true,
      "emissiveFactor": [
        1.0,
        1.0,
        1.0
      ],
      "emissiveTexture": {
        "index": 1
      },
      "name": "material",
      "normalTexture": {
        "index": 2
      },
      "pbrMetallicRoughness": {
        "baseColorTexture": {
          "index": 0
        },
        "metallicFactor": 0.0,
        "roughnessFactor": 0.29706554878048785
      }
    },
    {
      "doubleSided": true,
      "emissiveFactor": [
        1.0,
        1.0,
        1.0
      ],
      "emissiveTexture": {
        "index": 4
      },
      "name": "material_1",
      "normalTexture": {
        "index": 5
      },
      "pbrMetallicRoughness": {
        "baseColorTexture": {
          "index": 3
        },
        "metallicFactor": 0.0,
        "roughnessFactor": 0.29706554878048785
      }
    }
  ],
  "meshes": [
    {
      "name": "Object_0",
      "primitives": [
        {
          "attributes": {
            "NORMAL": 1,
            "POSITION": 0,
            "TANGENT": 2,
            "TEXCOORD_0": 3
          },
          "indices": 4,
          "material": 0,
          "mode": 4
        }
      ]
    },
    {
      "name": "Object_1",
      "primitives": [
        {
          "attributes": {
            "NORMAL": 6,
            "POSITION": 5,
            "TANGENT": 7,
            "TEXCOORD_0": 8
          },
          "indices": 9,
          "material": 1,
          "mode": 4
        }
      ]
    }
  ],
  "nodes": [
    {
      "children": [
        1
      ],
      "matrix": [
        1.0,
        0.0,
        0.0,
        0.0,
        0.0,
        2.220446049250313e-16,
        -1.0,
        0.0,
        0.0,
        1.0,
        2.220446049250313e-16,
        0.0,
        0.0,
        0.0,
        0.0,
        1.0
      ],
      "name": "Sketchfab_model"
    },
    {
      "children": [
        2,
        3
      ],
      "name": "D.E-BORN BEAST CFS 2018 POSE.obj.cleaner.materialmerger.gles"
    },
    {
      "mesh": 0,
      "name": "Object_2"
    },
    {
      "mesh": 1,
      "name": "Object_3"
    }
  ],
  "samplers": [
    {
      "magFilter": 9729,
      "minFilter": 9987,
      "wrapS": 10497,
      "wrapT": 10497
    }
  ],
  "scene": 0,
  "scenes": [
    {
      "name": "Sketchfab_Scene",
      "nodes": [
        0
      ]
    }
  ],
  "textures": [
    {
      "sampler": 0,
      "source": 0
    },
    {
      "sampler": 0,
      "source": 1
    },
    {
      "sampler": 0,
      "source": 2
    },
    {
      "sampler": 0,
      "source": 3
    },
    {
      "sampler": 0,
      "source": 4
    },
    {
      "sampler": 0,
      "source": 5
    }
  ]
}
