<?xml version="1.0" standalone="no"?>
<svg id="Group1" width="48" height="48" viewBox="0 0 48 48" fill="none" xmlns="http://www.w3.org/2000/svg" style="max-width: 100%; max-height: 100%;">
<path d="M23.7517 44.434L24 44.5761L24.2483 44.434L42.2483 34.134L42.5 33.99V33.7V13.75V13.4522L42.2381 13.3104L24.2381 3.56035L24 3.43136L23.7619 3.56035L5.76186 13.3104L5.5 13.4522V13.75V33.7V33.99L5.75167 34.134L23.7517 44.434ZM20.7044 16.7763C19.79 17.2257 18.9635 17.7927 18.2265 18.4767L11.6735 14.622L24 8.06631L36.3265 14.622L29.7735 18.4767C29.0365 17.7927 28.21 17.2257 27.2956 16.7763C26.2455 16.2602 25.1453 16 24 16C22.8547 16 21.7545 16.2602 20.7044 16.7763ZM17.8171 28.9465C18.9357 30.2789 20.3337 31.2065 22 31.7255V38.8364L9.5 31.6605V17.9773L16.2438 21.972C16.1444 22.2938 16.0793 22.605 16.0521 22.9047C16.0175 23.2849 16 23.6501 16 24C16 25.8531 16.6095 27.5081 17.8171 28.9465ZM26.8431 26.8248C26.0729 27.6098 25.136 28 24 28C22.9012 28 21.9695 27.6124 21.1786 26.8214C20.3876 26.0305 20 25.0988 20 24C20 22.864 20.3902 21.9271 21.1752 21.1569C21.9654 20.3816 22.8981 20 24 20C25.139 20 26.077 20.3841 26.8464 21.1536C27.6159 21.923 28 22.861 28 24C28 25.1019 27.6184 26.0346 26.8431 26.8248ZM38.5 31.6605L26 38.8364V31.7255C27.6663 31.2065 29.0643 30.2789 30.1829 28.9465C31.3905 27.5081 32 25.8531 32 24C32 23.65 31.9825 23.2925 31.9477 22.9276C31.9198 22.6339 31.8525 22.3158 31.7505 21.9754L38.5 17.9773V31.6605Z" stroke="#00FF00" stroke-opacity="0.5" stroke-dasharray="0,0,0,0,0,318.13092041015625"><animate attributeType="XML" attributeName="stroke-dasharray" repeatCount="indefinite" dur="10.46018628213446s" values="0,0,0,0,0,318.13092041015625; 0,0,0,166.43041534331252,151.70050506684373,0; 0,0,75.85025253342187,242.2806678767344,0,0; 0,159.06546020507812,0,159.06546020507812,0,0" keyTimes="0; 0.5; 0.7384246474238672; 1" begin="1.3983365161335244s"></animate></path>
<path d="M23.7517 44.434L24 44.5761L24.2483 44.434L42.2483 34.134L42.5 33.99V33.7V13.75V13.4522L42.2381 13.3104L24.2381 3.56035L24 3.43136L23.7619 3.56035L5.76186 13.3104L5.5 13.4522V13.75V33.7V33.99L5.75167 34.134L23.7517 44.434ZM20.7044 16.7763C19.79 17.2257 18.9635 17.7927 18.2265 18.4767L11.6735 14.622L24 8.06631L36.3265 14.622L29.7735 18.4767C29.0365 17.7927 28.21 17.2257 27.2956 16.7763C26.2455 16.2602 25.1453 16 24 16C22.8547 16 21.7545 16.2602 20.7044 16.7763ZM17.8171 28.9465C18.9357 30.2789 20.3337 31.2065 22 31.7255V38.8364L9.5 31.6605V17.9773L16.2438 21.972C16.1444 22.2938 16.0793 22.605 16.0521 22.9047C16.0175 23.2849 16 23.6501 16 24C16 25.8531 16.6095 27.5081 17.8171 28.9465ZM26.8431 26.8248C26.0729 27.6098 25.136 28 24 28C22.9012 28 21.9695 27.6124 21.1786 26.8214C20.3876 26.0305 20 25.0988 20 24C20 22.864 20.3902 21.9271 21.1752 21.1569C21.9654 20.3816 22.8981 20 24 20C25.139 20 26.077 20.3841 26.8464 21.1536C27.6159 21.923 28 22.861 28 24C28 25.1019 27.6184 26.0346 26.8431 26.8248ZM38.5 31.6605L26 38.8364V31.7255C27.6663 31.2065 29.0643 30.2789 30.1829 28.9465C31.3905 27.5081 32 25.8531 32 24C32 23.65 31.9825 23.2925 31.9477 22.9276C31.9198 22.6339 31.8525 22.3158 31.7505 21.9754L38.5 17.9773V31.6605Z" stroke="#00FF00" stroke-opacity="0.25" stroke-dasharray="0,0,0,0,0,318.13092041015625"><animate attributeType="XML" attributeName="stroke-dasharray" repeatCount="indefinite" dur="11.962163748009583s" values="0,0,0,0,0,318.13092041015625; 0,0,0,181.02657649345804,137.10434391669818,0; 0,0,68.55217195834909,249.57874845180714,0,0; 0,159.06546020507812,0,159.06546020507812,0,0" keyTimes="0; 0.5; 0.7154841530963634; 1" begin="4.854316291285608s"></animate></path>
<path d="M23.7517 44.434L24 44.5761L24.2483 44.434L42.2483 34.134L42.5 33.99V33.7V13.75V13.4522L42.2381 13.3104L24.2381 3.56035L24 3.43136L23.7619 3.56035L5.76186 13.3104L5.5 13.4522V13.75V33.7V33.99L5.75167 34.134L23.7517 44.434ZM20.7044 16.7763C19.79 17.2257 18.9635 17.7927 18.2265 18.4767L11.6735 14.622L24 8.06631L36.3265 14.622L29.7735 18.4767C29.0365 17.7927 28.21 17.2257 27.2956 16.7763C26.2455 16.2602 25.1453 16 24 16C22.8547 16 21.7545 16.2602 20.7044 16.7763ZM17.8171 28.9465C18.9357 30.2789 20.3337 31.2065 22 31.7255V38.8364L9.5 31.6605V17.9773L16.2438 21.972C16.1444 22.2938 16.0793 22.605 16.0521 22.9047C16.0175 23.2849 16 23.6501 16 24C16 25.8531 16.6095 27.5081 17.8171 28.9465ZM26.8431 26.8248C26.0729 27.6098 25.136 28 24 28C22.9012 28 21.9695 27.6124 21.1786 26.8214C20.3876 26.0305 20 25.0988 20 24C20 22.864 20.3902 21.9271 21.1752 21.1569C21.9654 20.3816 22.8981 20 24 20C25.139 20 26.077 20.3841 26.8464 21.1536C27.6159 21.923 28 22.861 28 24C28 25.1019 27.6184 26.0346 26.8431 26.8248ZM38.5 31.6605L26 38.8364V31.7255C27.6663 31.2065 29.0643 30.2789 30.1829 28.9465C31.3905 27.5081 32 25.8531 32 24C32 23.65 31.9825 23.2925 31.9477 22.9276C31.9198 22.6339 31.8525 22.3158 31.7505 21.9754L38.5 17.9773V31.6605Z" stroke="#0000FF" stroke-opacity="0.5" stroke-dasharray="0,0,0,0,0,318.13092041015625"><animate attributeType="XML" attributeName="stroke-dasharray" repeatCount="indefinite" dur="10.958424962407369s" values="0,0,0,0,0,318.13092041015625; 0,0,0,173.9920723428235,144.13884806733276,0; 0,0,72.06942403366638,246.06149637648988,0,0; 0,159.06546020507812,0,159.06546020507812,0,0" keyTimes="0; 0.5; 0.7265401424694887; 1" begin="3.0629437267229562s"></animate></path>
<path d="M23.7517 44.434L24 44.5761L24.2483 44.434L42.2483 34.134L42.5 33.99V33.7V13.75V13.4522L42.2381 13.3104L24.2381 3.56035L24 3.43136L23.7619 3.56035L5.76186 13.3104L5.5 13.4522V13.75V33.7V33.99L5.75167 34.134L23.7517 44.434ZM20.7044 16.7763C19.79 17.2257 18.9635 17.7927 18.2265 18.4767L11.6735 14.622L24 8.06631L36.3265 14.622L29.7735 18.4767C29.0365 17.7927 28.21 17.2257 27.2956 16.7763C26.2455 16.2602 25.1453 16 24 16C22.8547 16 21.7545 16.2602 20.7044 16.7763ZM17.8171 28.9465C18.9357 30.2789 20.3337 31.2065 22 31.7255V38.8364L9.5 31.6605V17.9773L16.2438 21.972C16.1444 22.2938 16.0793 22.605 16.0521 22.9047C16.0175 23.2849 16 23.6501 16 24C16 25.8531 16.6095 27.5081 17.8171 28.9465ZM26.8431 26.8248C26.0729 27.6098 25.136 28 24 28C22.9012 28 21.9695 27.6124 21.1786 26.8214C20.3876 26.0305 20 25.0988 20 24C20 22.864 20.3902 21.9271 21.1752 21.1569C21.9654 20.3816 22.8981 20 24 20C25.139 20 26.077 20.3841 26.8464 21.1536C27.6159 21.923 28 22.861 28 24C28 25.1019 27.6184 26.0346 26.8431 26.8248ZM38.5 31.6605L26 38.8364V31.7255C27.6663 31.2065 29.0643 30.2789 30.1829 28.9465C31.3905 27.5081 32 25.8531 32 24C32 23.65 31.9825 23.2925 31.9477 22.9276C31.9198 22.6339 31.8525 22.3158 31.7505 21.9754L38.5 17.9773V31.6605Z" stroke="#0000FF" stroke-opacity="0.25" stroke-dasharray="0,0,0,0,0,318.13092041015625"><animate attributeType="XML" attributeName="stroke-dasharray" repeatCount="indefinite" dur="10.383367703225009s" values="0,0,0,0,0,318.13092041015625; 0,0,0,190.18564349400404,127.9452769161522,0; 0,0,63.9726384580761,254.15828195208013,0,0; 0,159.06546020507812,0,159.06546020507812,0,0" keyTimes="0; 0.5; 0.7010890308166153; 1" begin="2.6161287765989s"></animate></path>
<path d="M23.7517 44.434L24 44.5761L24.2483 44.434L42.2483 34.134L42.5 33.99V33.7V13.75V13.4522L42.2381 13.3104L24.2381 3.56035L24 3.43136L23.7619 3.56035L5.76186 13.3104L5.5 13.4522V13.75V33.7V33.99L5.75167 34.134L23.7517 44.434ZM20.7044 16.7763C19.79 17.2257 18.9635 17.7927 18.2265 18.4767L11.6735 14.622L24 8.06631L36.3265 14.622L29.7735 18.4767C29.0365 17.7927 28.21 17.2257 27.2956 16.7763C26.2455 16.2602 25.1453 16 24 16C22.8547 16 21.7545 16.2602 20.7044 16.7763ZM17.8171 28.9465C18.9357 30.2789 20.3337 31.2065 22 31.7255V38.8364L9.5 31.6605V17.9773L16.2438 21.972C16.1444 22.2938 16.0793 22.605 16.0521 22.9047C16.0175 23.2849 16 23.6501 16 24C16 25.8531 16.6095 27.5081 17.8171 28.9465ZM26.8431 26.8248C26.0729 27.6098 25.136 28 24 28C22.9012 28 21.9695 27.6124 21.1786 26.8214C20.3876 26.0305 20 25.0988 20 24C20 22.864 20.3902 21.9271 21.1752 21.1569C21.9654 20.3816 22.8981 20 24 20C25.139 20 26.077 20.3841 26.8464 21.1536C27.6159 21.923 28 22.861 28 24C28 25.1019 27.6184 26.0346 26.8431 26.8248ZM38.5 31.6605L26 38.8364V31.7255C27.6663 31.2065 29.0643 30.2789 30.1829 28.9465C31.3905 27.5081 32 25.8531 32 24C32 23.65 31.9825 23.2925 31.9477 22.9276C31.9198 22.6339 31.8525 22.3158 31.7505 21.9754L38.5 17.9773V31.6605Z" stroke="#FF0000" stroke-opacity="0.5" stroke-dasharray="0,0,0,0,0,318.13092041015625"><animate attributeType="XML" attributeName="stroke-dasharray" repeatCount="indefinite" dur="10.647091575840276s" values="0,0,0,0,0,318.13092041015625; 0,0,0,164.35493893168444,153.7759814784718,0; 0,0,76.8879907392359,241.24292967092035,0,0; 0,159.06546020507812,0,159.06546020507812,0,0" keyTimes="0; 0.5; 0.7416866321579387; 1" begin="4.1673073508069205s"></animate></path>
<path d="M23.7517 44.434L24 44.5761L24.2483 44.434L42.2483 34.134L42.5 33.99V33.7V13.75V13.4522L42.2381 13.3104L24.2381 3.56035L24 3.43136L23.7619 3.56035L5.76186 13.3104L5.5 13.4522V13.75V33.7V33.99L5.75167 34.134L23.7517 44.434ZM20.7044 16.7763C19.79 17.2257 18.9635 17.7927 18.2265 18.4767L11.6735 14.622L24 8.06631L36.3265 14.622L29.7735 18.4767C29.0365 17.7927 28.21 17.2257 27.2956 16.7763C26.2455 16.2602 25.1453 16 24 16C22.8547 16 21.7545 16.2602 20.7044 16.7763ZM17.8171 28.9465C18.9357 30.2789 20.3337 31.2065 22 31.7255V38.8364L9.5 31.6605V17.9773L16.2438 21.972C16.1444 22.2938 16.0793 22.605 16.0521 22.9047C16.0175 23.2849 16 23.6501 16 24C16 25.8531 16.6095 27.5081 17.8171 28.9465ZM26.8431 26.8248C26.0729 27.6098 25.136 28 24 28C22.9012 28 21.9695 27.6124 21.1786 26.8214C20.3876 26.0305 20 25.0988 20 24C20 22.864 20.3902 21.9271 21.1752 21.1569C21.9654 20.3816 22.8981 20 24 20C25.139 20 26.077 20.3841 26.8464 21.1536C27.6159 21.923 28 22.861 28 24C28 25.1019 27.6184 26.0346 26.8431 26.8248ZM38.5 31.6605L26 38.8364V31.7255C27.6663 31.2065 29.0643 30.2789 30.1829 28.9465C31.3905 27.5081 32 25.8531 32 24C32 23.65 31.9825 23.2925 31.9477 22.9276C31.9198 22.6339 31.8525 22.3158 31.7505 21.9754L38.5 17.9773V31.6605Z" stroke="#FF0000" stroke-opacity="0.25" stroke-dasharray="0,0,0,0,0,318.13092041015625"><animate attributeType="XML" attributeName="stroke-dasharray" repeatCount="indefinite" dur="10.519273970488022s" values="0,0,0,0,0,318.13092041015625; 0,0,0,163.7727747785368,154.35814563161944,0; 0,0,77.17907281580972,240.9518475943465,0,0; 0,159.06546020507812,0,159.06546020507812,0,0" keyTimes="0; 0.5; 0.7426016079050259; 1" begin="3.8155591325590668s"></animate></path>
<g opacity="0.9" filter="url(#filter0_f_21_7)">
<path d="M24 44L6 33.7V13.75L24 4L42 13.75V33.7L24 44ZM18.3 19.1C19.0667 18.3333 19.9417 17.7083 20.925 17.225C21.9083 16.7417 22.9333 16.5 24 16.5C25.0667 16.5 26.0917 16.7417 27.075 17.225C28.0583 17.7083 28.9333 18.3333 29.7 19.1L37.35 14.6L24 7.5L10.65 14.6L18.3 19.1ZM22.5 39.7V31.35C20.7667 30.8833 19.3333 29.975 18.2 28.625C17.0667 27.275 16.5 25.7333 16.5 24C16.5 23.6667 16.5167 23.3167 16.55 22.95C16.5833 22.5833 16.6833 22.1833 16.85 21.75L9 17.1V31.95L22.5 39.7ZM24 28.5C25.2667 28.5 26.3333 28.0583 27.2 27.175C28.0667 26.2917 28.5 25.2333 28.5 24C28.5 22.7333 28.0667 21.6667 27.2 20.8C26.3333 19.9333 25.2667 19.5 24 19.5C22.7667 19.5 21.7083 19.9333 20.825 20.8C19.9417 21.6667 19.5 22.7333 19.5 24C19.5 25.2333 19.9417 26.2917 20.825 27.175C21.7083 28.0583 22.7667 28.5 24 28.5ZM25.5 39.7L39 31.95V17.1L31.15 21.75C31.3167 22.2167 31.4167 22.625 31.45 22.975C31.4833 23.325 31.5 23.6667 31.5 24C31.5 25.7333 30.9333 27.275 29.8 28.625C28.6667 29.975 27.2333 30.8833 25.5 31.35V39.7Z" fill="url(#paint0_radial_21_7)" stroke-dasharray="0,0,0,0,0,332.29376220703125"><animate attributeType="XML" attributeName="stroke-dasharray" repeatCount="indefinite" dur="12.284039145515175s" values="0,0,0,0,0,332.29376220703125; 0,0,0,191.19381798113866,141.09994422589259,0; 0,0,70.54997211294629,261.74379009408494,0,0; 0,166.14688110351562,0,166.14688110351562,0,0" keyTimes="0; 0.5; 0.7123120567908556; 1" begin="1.512911635193996s"></animate></path>
</g>
<defs>
<filter id="filter0_f_21_7" x="5" y="3" width="38" height="42" filterUnits="userSpaceOnUse" color-interpolation-filters="sRGB">
<feFlood flood-opacity="0" result="BackgroundImageFix"></feFlood>
<feBlend mode="normal" in="SourceGraphic" in2="BackgroundImageFix" result="shape"></feBlend>
<feGaussianBlur stdDeviation="0.5" result="effect1_foregroundBlur_21_7"></feGaussianBlur>
</filter>
<radialGradient id="paint0_radial_21_7" cx="0" cy="0" r="1" gradientUnits="userSpaceOnUse" gradientTransform="translate(24 24) rotate(90) scale(20 18)">
<stop offset="0.286458" stop-color="#FF5C00"></stop>
<stop offset="0.765625" stop-color="#FF0000" stop-opacity="0"></stop>
</radialGradient>
</defs>
<setting>{"type":"shift","speed":4,"random":0.8,"shift":0.5,"size":0.8,"rupture":50}</setting></svg>