<?xml version="1.0" standalone="no"?>
<svg id="Tri" width="48" height="48" viewBox="0 0 48 48" fill="none" xmlns="http://www.w3.org/2000/svg" style="max-width: 100%; max-height: 100%;">
<path d="M23.7517 44.434L24 44.5761L24.2483 44.434L42.2483 34.134L42.5 33.99V33.7V13.75V13.4522L42.2381 13.3104L24.2381 3.56035L24 3.43136L23.7619 3.56035L5.76186 13.3104L5.5 13.4522V13.75V33.7V33.99L5.75167 34.134L23.7517 44.434ZM20.7044 16.7763C19.79 17.2257 18.9635 17.7927 18.2265 18.4767L11.6735 14.622L24 8.06631L36.3265 14.622L29.7735 18.4767C29.0365 17.7927 28.21 17.2257 27.2956 16.7763C26.2455 16.2602 25.1453 16 24 16C22.8547 16 21.7545 16.2602 20.7044 16.7763ZM17.8171 28.9465C18.9357 30.2789 20.3337 31.2065 22 31.7255V38.8364L9.5 31.6605V17.9773L16.2438 21.972C16.1444 22.2938 16.0793 22.605 16.0521 22.9047C16.0175 23.2849 16 23.6501 16 24C16 25.8531 16.6095 27.5081 17.8171 28.9465ZM26.8431 26.8248C26.0729 27.6098 25.136 28 24 28C22.9012 28 21.9695 27.6124 21.1786 26.8214C20.3876 26.0305 20 25.0988 20 24C20 22.864 20.3902 21.9271 21.1752 21.1569C21.9654 20.3816 22.8981 20 24 20C25.139 20 26.077 20.3841 26.8464 21.1536C27.6159 21.923 28 22.861 28 24C28 25.1019 27.6184 26.0346 26.8431 26.8248ZM38.5 31.6605L26 38.8364V31.7255C27.6663 31.2065 29.0643 30.2789 30.1829 28.9465C31.3905 27.5081 32 25.8531 32 24C32 23.65 31.9825 23.2925 31.9477 22.9276C31.9198 22.6339 31.8525 22.3158 31.7505 21.9754L38.5 17.9773V31.6605Z" stroke="#FF0303" stroke-opacity="0.5" stroke-dasharray="0,0,0,0,0,318.13092041015625"><animate attributeType="XML" attributeName="stroke-dasharray" repeatCount="indefinite" dur="3.93999028219546s" values="0,0,0,0,0,318.13092041015625; 0,0,0,189.9281837006108,128.20273670954546,0; 0,0,64.10136835477273,254.0295520553835,0,0; 0,159.06546020507812,0,159.06546020507812,0,0" keyTimes="0; 0.5; 0.7014936752206571; 1" begin="1.2165283431692286s"></animate></path>
<path d="M23.7517 44.434L24 44.5761L24.2483 44.434L42.2483 34.134L42.5 33.99V33.7V13.75V13.4522L42.2381 13.3104L24.2381 3.56035L24 3.43136L23.7619 3.56035L5.76186 13.3104L5.5 13.4522V13.75V33.7V33.99L5.75167 34.134L23.7517 44.434ZM20.7044 16.7763C19.79 17.2257 18.9635 17.7927 18.2265 18.4767L11.6735 14.622L24 8.06631L36.3265 14.622L29.7735 18.4767C29.0365 17.7927 28.21 17.2257 27.2956 16.7763C26.2455 16.2602 25.1453 16 24 16C22.8547 16 21.7545 16.2602 20.7044 16.7763ZM17.8171 28.9465C18.9357 30.2789 20.3337 31.2065 22 31.7255V38.8364L9.5 31.6605V17.9773L16.2438 21.972C16.1444 22.2938 16.0793 22.605 16.0521 22.9047C16.0175 23.2849 16 23.6501 16 24C16 25.8531 16.6095 27.5081 17.8171 28.9465ZM26.8431 26.8248C26.0729 27.6098 25.136 28 24 28C22.9012 28 21.9695 27.6124 21.1786 26.8214C20.3876 26.0305 20 25.0988 20 24C20 22.864 20.3902 21.9271 21.1752 21.1569C21.9654 20.3816 22.8981 20 24 20C25.139 20 26.077 20.3841 26.8464 21.1536C27.6159 21.923 28 22.861 28 24C28 25.1019 27.6184 26.0346 26.8431 26.8248ZM38.5 31.6605L26 38.8364V31.7255C27.6663 31.2065 29.0643 30.2789 30.1829 28.9465C31.3905 27.5081 32 25.8531 32 24C32 23.65 31.9825 23.2925 31.9477 22.9276C31.9198 22.6339 31.8525 22.3158 31.7505 21.9754L38.5 17.9773V31.6605Z" stroke="#FF0000" stroke-opacity="0.25" stroke-dasharray="0,0,0,0,0,318.13092041015625"><animate attributeType="XML" attributeName="stroke-dasharray" repeatCount="indefinite" dur="3.713625354664249s" values="0,0,0,0,0,318.13092041015625; 0,0,0,186.7108776530836,131.42004275707265,0; 0,0,65.71002137853633,252.42089903161994,0,0; 0,159.06546020507812,0,159.06546020507812,0,0" keyTimes="0; 0.5; 0.7065502507389676; 1" begin="0.8025757987863363s"></animate></path>
<path d="M23.7517 44.434L24 44.5761L24.2483 44.434L42.2483 34.134L42.5 33.99V33.7V13.75V13.4522L42.2381 13.3104L24.2381 3.56035L24 3.43136L23.7619 3.56035L5.76186 13.3104L5.5 13.4522V13.75V33.7V33.99L5.75167 34.134L23.7517 44.434ZM20.7044 16.7763C19.79 17.2257 18.9635 17.7927 18.2265 18.4767L11.6735 14.622L24 8.06631L36.3265 14.622L29.7735 18.4767C29.0365 17.7927 28.21 17.2257 27.2956 16.7763C26.2455 16.2602 25.1453 16 24 16C22.8547 16 21.7545 16.2602 20.7044 16.7763ZM17.8171 28.9465C18.9357 30.2789 20.3337 31.2065 22 31.7255V38.8364L9.5 31.6605V17.9773L16.2438 21.972C16.1444 22.2938 16.0793 22.605 16.0521 22.9047C16.0175 23.2849 16 23.6501 16 24C16 25.8531 16.6095 27.5081 17.8171 28.9465ZM26.8431 26.8248C26.0729 27.6098 25.136 28 24 28C22.9012 28 21.9695 27.6124 21.1786 26.8214C20.3876 26.0305 20 25.0988 20 24C20 22.864 20.3902 21.9271 21.1752 21.1569C21.9654 20.3816 22.8981 20 24 20C25.139 20 26.077 20.3841 26.8464 21.1536C27.6159 21.923 28 22.861 28 24C28 25.1019 27.6184 26.0346 26.8431 26.8248ZM38.5 31.6605L26 38.8364V31.7255C27.6663 31.2065 29.0643 30.2789 30.1829 28.9465C31.3905 27.5081 32 25.8531 32 24C32 23.65 31.9825 23.2925 31.9477 22.9276C31.9198 22.6339 31.8525 22.3158 31.7505 21.9754L38.5 17.9773V31.6605Z" stroke="#00FF00" stroke-opacity="0.5" stroke-dasharray="0,0,0,0,0,318.13092041015625"><animate attributeType="XML" attributeName="stroke-dasharray" repeatCount="indefinite" dur="3.9274669852274973s" values="0,0,0,0,0,318.13092041015625; 0,0,0,174.59399444979553,143.53692596036072,0; 0,0,71.76846298018036,246.3624574299759,0,0; 0,159.06546020507812,0,159.06546020507812,0,0" keyTimes="0; 0.5; 0.7255941135418447; 1" begin="0.584522306785015s"></animate></path>
<path d="M23.7517 44.434L24 44.5761L24.2483 44.434L42.2483 34.134L42.5 33.99V33.7V13.75V13.4522L42.2381 13.3104L24.2381 3.56035L24 3.43136L23.7619 3.56035L5.76186 13.3104L5.5 13.4522V13.75V33.7V33.99L5.75167 34.134L23.7517 44.434ZM20.7044 16.7763C19.79 17.2257 18.9635 17.7927 18.2265 18.4767L11.6735 14.622L24 8.06631L36.3265 14.622L29.7735 18.4767C29.0365 17.7927 28.21 17.2257 27.2956 16.7763C26.2455 16.2602 25.1453 16 24 16C22.8547 16 21.7545 16.2602 20.7044 16.7763ZM17.8171 28.9465C18.9357 30.2789 20.3337 31.2065 22 31.7255V38.8364L9.5 31.6605V17.9773L16.2438 21.972C16.1444 22.2938 16.0793 22.605 16.0521 22.9047C16.0175 23.2849 16 23.6501 16 24C16 25.8531 16.6095 27.5081 17.8171 28.9465ZM26.8431 26.8248C26.0729 27.6098 25.136 28 24 28C22.9012 28 21.9695 27.6124 21.1786 26.8214C20.3876 26.0305 20 25.0988 20 24C20 22.864 20.3902 21.9271 21.1752 21.1569C21.9654 20.3816 22.8981 20 24 20C25.139 20 26.077 20.3841 26.8464 21.1536C27.6159 21.923 28 22.861 28 24C28 25.1019 27.6184 26.0346 26.8431 26.8248ZM38.5 31.6605L26 38.8364V31.7255C27.6663 31.2065 29.0643 30.2789 30.1829 28.9465C31.3905 27.5081 32 25.8531 32 24C32 23.65 31.9825 23.2925 31.9477 22.9276C31.9198 22.6339 31.8525 22.3158 31.7505 21.9754L38.5 17.9773V31.6605Z" stroke="#00FF00" stroke-opacity="0.25" stroke-dasharray="0,0,0,0,0,318.13092041015625"><animate attributeType="XML" attributeName="stroke-dasharray" repeatCount="indefinite" dur="4.457266508124923s" values="0,0,0,0,0,318.13092041015625; 0,0,0,189.5529173318033,128.57800307835296,0; 0,0,64.28900153917648,253.84191887097975,0,0; 0,159.06546020507812,0,159.06546020507812,0,0" keyTimes="0; 0.5; 0.702083473861298; 1" begin="1.039312259290257s"></animate></path>
<path d="M23.7517 44.434L24 44.5761L24.2483 44.434L42.2483 34.134L42.5 33.99V33.7V13.75V13.4522L42.2381 13.3104L24.2381 3.56035L24 3.43136L23.7619 3.56035L5.76186 13.3104L5.5 13.4522V13.75V33.7V33.99L5.75167 34.134L23.7517 44.434ZM20.7044 16.7763C19.79 17.2257 18.9635 17.7927 18.2265 18.4767L11.6735 14.622L24 8.06631L36.3265 14.622L29.7735 18.4767C29.0365 17.7927 28.21 17.2257 27.2956 16.7763C26.2455 16.2602 25.1453 16 24 16C22.8547 16 21.7545 16.2602 20.7044 16.7763ZM17.8171 28.9465C18.9357 30.2789 20.3337 31.2065 22 31.7255V38.8364L9.5 31.6605V17.9773L16.2438 21.972C16.1444 22.2938 16.0793 22.605 16.0521 22.9047C16.0175 23.2849 16 23.6501 16 24C16 25.8531 16.6095 27.5081 17.8171 28.9465ZM26.8431 26.8248C26.0729 27.6098 25.136 28 24 28C22.9012 28 21.9695 27.6124 21.1786 26.8214C20.3876 26.0305 20 25.0988 20 24C20 22.864 20.3902 21.9271 21.1752 21.1569C21.9654 20.3816 22.8981 20 24 20C25.139 20 26.077 20.3841 26.8464 21.1536C27.6159 21.923 28 22.861 28 24C28 25.1019 27.6184 26.0346 26.8431 26.8248ZM38.5 31.6605L26 38.8364V31.7255C27.6663 31.2065 29.0643 30.2789 30.1829 28.9465C31.3905 27.5081 32 25.8531 32 24C32 23.65 31.9825 23.2925 31.9477 22.9276C31.9198 22.6339 31.8525 22.3158 31.7505 21.9754L38.5 17.9773V31.6605Z" stroke="#0000FF" stroke-opacity="0.5" stroke-dasharray="0,0,0,0,0,318.13092041015625"><animate attributeType="XML" attributeName="stroke-dasharray" repeatCount="indefinite" dur="3.7986556624223127s" values="0,0,0,0,0,318.13092041015625; 0,0,0,177.90981025870974,140.2211101514465,0; 0,0,70.11055507572325,248.02036533443302,0,0; 0,159.06546020507812,0,159.06546020507812,0,0" keyTimes="0; 0.5; 0.7203827122033026; 1" begin="0.9767009453881648s"></animate></path>
<path d="M23.7517 44.434L24 44.5761L24.2483 44.434L42.2483 34.134L42.5 33.99V33.7V13.75V13.4522L42.2381 13.3104L24.2381 3.56035L24 3.43136L23.7619 3.56035L5.76186 13.3104L5.5 13.4522V13.75V33.7V33.99L5.75167 34.134L23.7517 44.434ZM20.7044 16.7763C19.79 17.2257 18.9635 17.7927 18.2265 18.4767L11.6735 14.622L24 8.06631L36.3265 14.622L29.7735 18.4767C29.0365 17.7927 28.21 17.2257 27.2956 16.7763C26.2455 16.2602 25.1453 16 24 16C22.8547 16 21.7545 16.2602 20.7044 16.7763ZM17.8171 28.9465C18.9357 30.2789 20.3337 31.2065 22 31.7255V38.8364L9.5 31.6605V17.9773L16.2438 21.972C16.1444 22.2938 16.0793 22.605 16.0521 22.9047C16.0175 23.2849 16 23.6501 16 24C16 25.8531 16.6095 27.5081 17.8171 28.9465ZM26.8431 26.8248C26.0729 27.6098 25.136 28 24 28C22.9012 28 21.9695 27.6124 21.1786 26.8214C20.3876 26.0305 20 25.0988 20 24C20 22.864 20.3902 21.9271 21.1752 21.1569C21.9654 20.3816 22.8981 20 24 20C25.139 20 26.077 20.3841 26.8464 21.1536C27.6159 21.923 28 22.861 28 24C28 25.1019 27.6184 26.0346 26.8431 26.8248ZM38.5 31.6605L26 38.8364V31.7255C27.6663 31.2065 29.0643 30.2789 30.1829 28.9465C31.3905 27.5081 32 25.8531 32 24C32 23.65 31.9825 23.2925 31.9477 22.9276C31.9198 22.6339 31.8525 22.3158 31.7505 21.9754L38.5 17.9773V31.6605Z" stroke="#0000FF" stroke-opacity="0.25" stroke-dasharray="0,0,0,0,0,318.13092041015625"><animate attributeType="XML" attributeName="stroke-dasharray" repeatCount="indefinite" dur="4.133195471290206s" values="0,0,0,0,0,318.13092041015625; 0,0,0,176.96622451839593,141.16469589176032,0; 0,0,70.58234794588016,247.5485724642761,0,0; 0,159.06546020507812,0,159.06546020507812,0,0" keyTimes="0; 0.5; 0.7218657270248379; 1" begin="0.9757266281996805s"></animate></path>
<setting>{"type":"shift","speed":11,"random":0.8,"shift":0.5,"size":0.8,"rupture":53}</setting></svg>